<svg width="76" height="12" viewBox="0 0 76 12" fill="none" xmlns="http://www.w3.org/2000/svg">
<path d="M0.112671 11.3478H2.186V8.56106L3.2059 7.3161L5.89213 11.3478H8.37247L4.69027 5.93229L8.32937 1.54143H5.84425L2.31528 5.86525H2.186V1.54143H0.112671V11.3478Z" fill="#FF577F"/>
<path d="M12.4524 11.4915C14.272 11.4915 15.4978 10.6057 15.7851 9.241L13.8985 9.1165C13.6926 9.67673 13.1659 9.96882 12.4859 9.96882C11.466 9.96882 10.8196 9.29367 10.8196 8.19715V8.19236H15.8282V7.63213C15.8282 5.13265 14.3151 3.89727 12.371 3.89727C10.2067 3.89727 8.80375 5.43431 8.80375 7.70396C8.80375 10.0359 10.1876 11.4915 12.4524 11.4915ZM10.8196 6.92825C10.8627 6.0903 11.4996 5.41994 12.4045 5.41994C13.2904 5.41994 13.9033 6.052 13.9081 6.92825H10.8196Z" fill="#FF577F"/>
<path d="M19.4688 7.09584C19.4736 6.14776 20.0386 5.59232 20.8622 5.59232C21.681 5.59232 22.1742 6.12861 22.1694 7.02881V11.3478H24.2092V6.6649C24.2092 4.95069 23.2037 3.89727 21.6714 3.89727C20.5797 3.89727 19.7896 4.43356 19.4592 5.29066H19.373V3.99303H17.429V11.3478H19.4688V7.09584Z" fill="#FF577F"/>
<path d="M26.0482 11.3478H32.2299V9.71982H28.7249V9.66715L32.1054 5.31939V3.99303H26.1727V5.62105H29.649V5.67372L26.0482 10.1316V11.3478Z" fill="#FF577F"/>
<path d="M34.0594 11.3478H36.0992V3.99303H34.0594V11.3478ZM35.0841 3.04495C35.6922 3.04495 36.1902 2.58049 36.1902 2.01068C36.1902 1.44567 35.6922 0.981201 35.0841 0.981201C34.4807 0.981201 33.9828 1.44567 33.9828 2.01068C33.9828 2.58049 34.4807 3.04495 35.0841 3.04495Z" fill="#FF577F"/>
<path d="M41.3547 11.4915C43.1742 11.4915 44.4 10.6057 44.6873 9.241L42.8007 9.1165C42.5948 9.67673 42.0681 9.96882 41.3882 9.96882C40.3683 9.96882 39.7219 9.29367 39.7219 8.19715V8.19236H44.7304V7.63213C44.7304 5.13265 43.2173 3.89727 41.2733 3.89727C39.109 3.89727 37.706 5.43431 37.706 7.70396C37.706 10.0359 39.0898 11.4915 41.3547 11.4915ZM39.7219 6.92825C39.7649 6.0903 40.4018 5.41994 41.3068 5.41994C42.1926 5.41994 42.8055 6.052 42.8103 6.92825H39.7219Z" fill="#FF577F"/>
<path d="M49.76 11.3478H51.8333V7.29695H56.0422V11.3478H58.1107V1.54143H56.0422V5.58753H51.8333V1.54143H49.76V11.3478Z" fill="#FF577F"/>
<path d="M64.768 8.2163C64.7728 9.20269 64.0976 9.71982 63.365 9.71982C62.5941 9.71982 62.0961 9.17875 62.0913 8.31207V3.99303H60.0515V8.67598C60.0563 10.395 61.0619 11.4436 62.5414 11.4436C63.6475 11.4436 64.4424 10.8738 64.7728 10.0119H64.8494V11.3478H66.8078V3.99303H64.768V8.2163Z" fill="#FF577F"/>
<path d="M68.7474 11.3478H70.7585V10.1699H70.8494C71.132 10.7828 71.7496 11.4675 72.9371 11.4675C74.613 11.4675 75.9202 10.1412 75.9202 7.68001C75.9202 5.1518 74.5556 3.89727 72.9419 3.89727C71.7113 3.89727 71.1224 4.62988 70.8494 5.22841H70.7872V1.54143H68.7474V11.3478ZM70.7441 7.67044C70.7441 6.35845 71.2996 5.5205 72.2907 5.5205C73.3011 5.5205 73.8373 6.39675 73.8373 7.67044C73.8373 8.9537 73.2915 9.84432 72.2907 9.84432C71.3091 9.84432 70.7441 8.98243 70.7441 7.67044Z" fill="#FF577F"/>
</svg>
